<mxfile host="Electron" modified="2024-03-17T06:18:53.189Z" agent="Mozilla/5.0 (Windows NT 10.0; Win64; x64) AppleWebKit/537.36 (KHTML, like Gecko) draw.io/24.0.4 Chrome/120.0.6099.109 Electron/28.1.0 Safari/537.36" etag="Ya-fe5adY3cS3dwlHRpF" version="24.0.4" type="device">
  <diagram name="第 1 页" id="quJmcB6jCed4tEphBe0m">
    <mxGraphModel dx="1292" dy="974" grid="1" gridSize="10" guides="1" tooltips="1" connect="1" arrows="1" fold="1" page="1" pageScale="1" pageWidth="827" pageHeight="1169" math="0" shadow="0">
      <root>
        <mxCell id="0" />
        <mxCell id="1" parent="0" />
        <mxCell id="4brsFd7E5QtioXpiDDoT-4" style="edgeStyle=orthogonalEdgeStyle;rounded=0;orthogonalLoop=1;jettySize=auto;html=1;exitX=0.5;exitY=1;exitDx=0;exitDy=0;entryX=0.517;entryY=0.05;entryDx=0;entryDy=0;entryPerimeter=0;" edge="1" parent="1" source="4brsFd7E5QtioXpiDDoT-1" target="4brsFd7E5QtioXpiDDoT-8">
          <mxGeometry relative="1" as="geometry">
            <mxPoint x="340" y="160" as="targetPoint" />
          </mxGeometry>
        </mxCell>
        <mxCell id="4brsFd7E5QtioXpiDDoT-5" style="edgeStyle=orthogonalEdgeStyle;rounded=0;orthogonalLoop=1;jettySize=auto;html=1;exitX=0.5;exitY=1;exitDx=0;exitDy=0;entryX=0.485;entryY=-0.05;entryDx=0;entryDy=0;entryPerimeter=0;" edge="1" parent="1" source="4brsFd7E5QtioXpiDDoT-1" target="4brsFd7E5QtioXpiDDoT-9">
          <mxGeometry relative="1" as="geometry">
            <mxPoint x="480" y="160" as="targetPoint" />
          </mxGeometry>
        </mxCell>
        <mxCell id="4brsFd7E5QtioXpiDDoT-6" style="edgeStyle=orthogonalEdgeStyle;rounded=0;orthogonalLoop=1;jettySize=auto;html=1;exitX=0.5;exitY=1;exitDx=0;exitDy=0;" edge="1" parent="1" source="4brsFd7E5QtioXpiDDoT-1">
          <mxGeometry relative="1" as="geometry">
            <mxPoint x="760" y="160" as="targetPoint" />
          </mxGeometry>
        </mxCell>
        <mxCell id="4brsFd7E5QtioXpiDDoT-11" style="edgeStyle=orthogonalEdgeStyle;rounded=0;orthogonalLoop=1;jettySize=auto;html=1;exitX=0.5;exitY=1;exitDx=0;exitDy=0;" edge="1" parent="1" source="4brsFd7E5QtioXpiDDoT-1" target="4brsFd7E5QtioXpiDDoT-7">
          <mxGeometry relative="1" as="geometry" />
        </mxCell>
        <mxCell id="4brsFd7E5QtioXpiDDoT-1" value="主程序" style="ellipse;whiteSpace=wrap;html=1;" vertex="1" parent="1">
          <mxGeometry x="354" width="120" height="80" as="geometry" />
        </mxCell>
        <mxCell id="4brsFd7E5QtioXpiDDoT-7" value="Start" style="html=1;shadow=0;dashed=0;shape=mxgraph.bootstrap.rrect;rSize=5;strokeColor=none;strokeWidth=1;fillColor=#0085FC;fontColor=#FFFFFF;whiteSpace=wrap;align=center;verticalAlign=middle;spacingLeft=0;fontStyle=0;fontSize=16;spacing=5;" vertex="1" parent="1">
          <mxGeometry x="70" y="160" width="80" height="40" as="geometry" />
        </mxCell>
        <mxCell id="4brsFd7E5QtioXpiDDoT-8" value="Mode" style="html=1;shadow=0;dashed=0;shape=mxgraph.bootstrap.rrect;rSize=5;strokeColor=none;strokeWidth=1;fillColor=#FFFFFF;fontColor=#0000FF;whiteSpace=wrap;align=center;verticalAlign=middle;spacingLeft=0;fontStyle=0;fontSize=16;spacing=5;" vertex="1" parent="1">
          <mxGeometry x="230" y="160" width="60" height="40" as="geometry" />
        </mxCell>
        <mxCell id="4brsFd7E5QtioXpiDDoT-53" style="edgeStyle=orthogonalEdgeStyle;rounded=0;orthogonalLoop=1;jettySize=auto;html=1;exitX=0.161;exitY=1.062;exitDx=0;exitDy=0;exitPerimeter=0;" edge="1" parent="1" source="4brsFd7E5QtioXpiDDoT-9" target="4brsFd7E5QtioXpiDDoT-52">
          <mxGeometry relative="1" as="geometry">
            <Array as="points">
              <mxPoint x="541" y="290" />
              <mxPoint x="585" y="290" />
            </Array>
          </mxGeometry>
        </mxCell>
        <mxCell id="4brsFd7E5QtioXpiDDoT-9" value="&lt;font color=&quot;#0000ff&quot;&gt;Introduction&lt;/font&gt;" style="html=1;shadow=0;dashed=0;shape=mxgraph.bootstrap.rrect;rSize=5;strokeColor=none;strokeWidth=1;fillColor=#FFFFFF;fontColor=#ffffff;whiteSpace=wrap;align=center;verticalAlign=middle;spacingLeft=0;fontStyle=0;fontSize=16;spacing=5;" vertex="1" parent="1">
          <mxGeometry x="520" y="160" width="130" height="40" as="geometry" />
        </mxCell>
        <mxCell id="4brsFd7E5QtioXpiDDoT-24" style="edgeStyle=orthogonalEdgeStyle;rounded=0;orthogonalLoop=1;jettySize=auto;html=1;entryX=1;entryY=0.5;entryDx=0;entryDy=0;" edge="1" parent="1" source="4brsFd7E5QtioXpiDDoT-10" target="4brsFd7E5QtioXpiDDoT-22">
          <mxGeometry relative="1" as="geometry" />
        </mxCell>
        <mxCell id="4brsFd7E5QtioXpiDDoT-10" value="&lt;font color=&quot;#0000ff&quot;&gt;respository&lt;/font&gt;" style="html=1;shadow=0;dashed=0;shape=mxgraph.bootstrap.rrect;rSize=5;strokeColor=none;strokeWidth=1;fillColor=#FFFFFF;fontColor=#ffffff;whiteSpace=wrap;align=center;verticalAlign=middle;spacingLeft=0;fontStyle=0;fontSize=16;spacing=5;labelBackgroundColor=none;" vertex="1" parent="1">
          <mxGeometry x="354" y="160" width="120" height="40" as="geometry" />
        </mxCell>
        <mxCell id="4brsFd7E5QtioXpiDDoT-12" style="edgeStyle=orthogonalEdgeStyle;rounded=0;orthogonalLoop=1;jettySize=auto;html=1;entryX=0.5;entryY=0;entryDx=0;entryDy=0;entryPerimeter=0;" edge="1" parent="1" source="4brsFd7E5QtioXpiDDoT-1" target="4brsFd7E5QtioXpiDDoT-10">
          <mxGeometry relative="1" as="geometry" />
        </mxCell>
        <mxCell id="4brsFd7E5QtioXpiDDoT-16" style="edgeStyle=orthogonalEdgeStyle;rounded=0;orthogonalLoop=1;jettySize=auto;html=1;" edge="1" parent="1" source="4brsFd7E5QtioXpiDDoT-13" target="4brsFd7E5QtioXpiDDoT-17">
          <mxGeometry relative="1" as="geometry">
            <mxPoint x="760" y="240" as="targetPoint" />
          </mxGeometry>
        </mxCell>
        <mxCell id="4brsFd7E5QtioXpiDDoT-13" value="PNG" style="whiteSpace=wrap;html=1;aspect=fixed;" vertex="1" parent="1">
          <mxGeometry x="740" y="160" width="40" height="40" as="geometry" />
        </mxCell>
        <mxCell id="4brsFd7E5QtioXpiDDoT-15" style="edgeStyle=orthogonalEdgeStyle;rounded=0;orthogonalLoop=1;jettySize=auto;html=1;entryX=0;entryY=0.5;entryDx=0;entryDy=0;dashed=1;" edge="1" parent="1" source="4brsFd7E5QtioXpiDDoT-14" target="4brsFd7E5QtioXpiDDoT-13">
          <mxGeometry relative="1" as="geometry" />
        </mxCell>
        <mxCell id="4brsFd7E5QtioXpiDDoT-14" value="切换语言" style="ellipse;shape=cloud;whiteSpace=wrap;html=1;" vertex="1" parent="1">
          <mxGeometry x="550" y="40" width="230" height="80" as="geometry" />
        </mxCell>
        <mxCell id="4brsFd7E5QtioXpiDDoT-20" style="edgeStyle=orthogonalEdgeStyle;rounded=0;orthogonalLoop=1;jettySize=auto;html=1;dashed=1;dashPattern=12 12;" edge="1" parent="1" source="4brsFd7E5QtioXpiDDoT-17" target="4brsFd7E5QtioXpiDDoT-8">
          <mxGeometry relative="1" as="geometry" />
        </mxCell>
        <mxCell id="4brsFd7E5QtioXpiDDoT-21" style="edgeStyle=orthogonalEdgeStyle;rounded=0;orthogonalLoop=1;jettySize=auto;html=1;exitX=0;exitY=0.5;exitDx=0;exitDy=0;dashed=1;dashPattern=12 12;" edge="1" parent="1" source="4brsFd7E5QtioXpiDDoT-17" target="4brsFd7E5QtioXpiDDoT-7">
          <mxGeometry relative="1" as="geometry" />
        </mxCell>
        <mxCell id="4brsFd7E5QtioXpiDDoT-17" value="切换语言" style="rhombus;whiteSpace=wrap;html=1;" vertex="1" parent="1">
          <mxGeometry x="685" y="240" width="150" height="80" as="geometry" />
        </mxCell>
        <mxCell id="4brsFd7E5QtioXpiDDoT-18" style="edgeStyle=orthogonalEdgeStyle;rounded=0;orthogonalLoop=1;jettySize=auto;html=1;entryX=0.485;entryY=0.975;entryDx=0;entryDy=0;entryPerimeter=0;dashed=1;dashPattern=12 12;" edge="1" parent="1" source="4brsFd7E5QtioXpiDDoT-17" target="4brsFd7E5QtioXpiDDoT-9">
          <mxGeometry relative="1" as="geometry" />
        </mxCell>
        <mxCell id="4brsFd7E5QtioXpiDDoT-19" style="edgeStyle=orthogonalEdgeStyle;rounded=0;orthogonalLoop=1;jettySize=auto;html=1;exitX=0;exitY=0.5;exitDx=0;exitDy=0;entryX=0.492;entryY=0.975;entryDx=0;entryDy=0;entryPerimeter=0;dashed=1;dashPattern=12 12;" edge="1" parent="1" source="4brsFd7E5QtioXpiDDoT-17" target="4brsFd7E5QtioXpiDDoT-10">
          <mxGeometry relative="1" as="geometry" />
        </mxCell>
        <mxCell id="4brsFd7E5QtioXpiDDoT-22" value="跳转至个人仓库(Github的项目)" style="ellipse;whiteSpace=wrap;html=1;" vertex="1" parent="1">
          <mxGeometry x="40" width="270" height="90" as="geometry" />
        </mxCell>
        <mxCell id="4brsFd7E5QtioXpiDDoT-38" style="edgeStyle=orthogonalEdgeStyle;rounded=0;orthogonalLoop=1;jettySize=auto;html=1;entryX=0.5;entryY=0;entryDx=0;entryDy=0;" edge="1" parent="1" source="4brsFd7E5QtioXpiDDoT-27" target="4brsFd7E5QtioXpiDDoT-35">
          <mxGeometry relative="1" as="geometry" />
        </mxCell>
        <mxCell id="4brsFd7E5QtioXpiDDoT-39" style="edgeStyle=orthogonalEdgeStyle;rounded=0;orthogonalLoop=1;jettySize=auto;html=1;entryX=0.5;entryY=0;entryDx=0;entryDy=0;" edge="1" parent="1" source="4brsFd7E5QtioXpiDDoT-27" target="4brsFd7E5QtioXpiDDoT-36">
          <mxGeometry relative="1" as="geometry" />
        </mxCell>
        <mxCell id="4brsFd7E5QtioXpiDDoT-27" value="&lt;font color=&quot;#0000ff&quot;&gt;Setting&lt;/font&gt;" style="html=1;shadow=0;dashed=0;shape=mxgraph.bootstrap.rrect;rSize=5;strokeColor=none;strokeWidth=1;fillColor=#FFFFFF;fontColor=#ffffff;whiteSpace=wrap;align=center;verticalAlign=middle;spacingLeft=0;fontStyle=0;fontSize=16;spacing=5;" vertex="1" parent="1">
          <mxGeometry x="1140" y="160" width="130" height="40" as="geometry" />
        </mxCell>
        <mxCell id="4brsFd7E5QtioXpiDDoT-28" style="edgeStyle=orthogonalEdgeStyle;rounded=0;orthogonalLoop=1;jettySize=auto;html=1;exitX=0.5;exitY=1;exitDx=0;exitDy=0;entryX=0.477;entryY=0.025;entryDx=0;entryDy=0;entryPerimeter=0;" edge="1" parent="1" source="4brsFd7E5QtioXpiDDoT-1" target="4brsFd7E5QtioXpiDDoT-27">
          <mxGeometry relative="1" as="geometry" />
        </mxCell>
        <mxCell id="4brsFd7E5QtioXpiDDoT-29" style="edgeStyle=orthogonalEdgeStyle;rounded=0;orthogonalLoop=1;jettySize=auto;html=1;dashed=1;dashPattern=12 12;exitX=1;exitY=0.5;exitDx=0;exitDy=0;" edge="1" parent="1" source="4brsFd7E5QtioXpiDDoT-17" target="4brsFd7E5QtioXpiDDoT-27">
          <mxGeometry relative="1" as="geometry">
            <mxPoint x="840" y="280" as="sourcePoint" />
            <mxPoint x="1119.02" y="184" as="targetPoint" />
            <Array as="points">
              <mxPoint x="985" y="280" />
              <mxPoint x="985" y="180" />
            </Array>
          </mxGeometry>
        </mxCell>
        <mxCell id="4brsFd7E5QtioXpiDDoT-30" value="&lt;h1 style=&quot;margin-top: 0px;&quot;&gt;第一行所显示的均为点击触发&lt;/h1&gt;" style="text;html=1;whiteSpace=wrap;overflow=hidden;rounded=0;" vertex="1" parent="1">
          <mxGeometry x="1290" y="160" width="320" height="40" as="geometry" />
        </mxCell>
        <mxCell id="4brsFd7E5QtioXpiDDoT-31" value="&lt;h1 style=&quot;margin-top: 0px;&quot;&gt;&lt;span style=&quot;background-color: initial; font-size: 12px; font-weight: normal;&quot;&gt;这会将所有按钮、文本都切换语言&lt;/span&gt;&lt;br&gt;&lt;/h1&gt;" style="text;html=1;whiteSpace=wrap;overflow=hidden;rounded=0;" vertex="1" parent="1">
          <mxGeometry x="790" y="200" width="190" height="50" as="geometry" />
        </mxCell>
        <mxCell id="4brsFd7E5QtioXpiDDoT-35" value="Control" style="shape=step;perimeter=stepPerimeter;whiteSpace=wrap;html=1;fixedSize=1;" vertex="1" parent="1">
          <mxGeometry x="1040" y="240" width="120" height="40" as="geometry" />
        </mxCell>
        <mxCell id="4brsFd7E5QtioXpiDDoT-43" style="edgeStyle=orthogonalEdgeStyle;rounded=0;orthogonalLoop=1;jettySize=auto;html=1;exitX=0.5;exitY=1;exitDx=0;exitDy=0;" edge="1" parent="1" source="4brsFd7E5QtioXpiDDoT-36" target="4brsFd7E5QtioXpiDDoT-42">
          <mxGeometry relative="1" as="geometry" />
        </mxCell>
        <mxCell id="4brsFd7E5QtioXpiDDoT-44" style="edgeStyle=orthogonalEdgeStyle;rounded=0;orthogonalLoop=1;jettySize=auto;html=1;exitX=0.5;exitY=1;exitDx=0;exitDy=0;entryX=0;entryY=0.5;entryDx=0;entryDy=0;" edge="1" parent="1" source="4brsFd7E5QtioXpiDDoT-36" target="4brsFd7E5QtioXpiDDoT-41">
          <mxGeometry relative="1" as="geometry" />
        </mxCell>
        <mxCell id="4brsFd7E5QtioXpiDDoT-45" style="edgeStyle=orthogonalEdgeStyle;rounded=0;orthogonalLoop=1;jettySize=auto;html=1;exitX=0.5;exitY=1;exitDx=0;exitDy=0;entryX=0;entryY=0.5;entryDx=0;entryDy=0;" edge="1" parent="1" source="4brsFd7E5QtioXpiDDoT-36" target="4brsFd7E5QtioXpiDDoT-40">
          <mxGeometry relative="1" as="geometry" />
        </mxCell>
        <mxCell id="4brsFd7E5QtioXpiDDoT-36" value="Theme" style="shape=step;perimeter=stepPerimeter;whiteSpace=wrap;html=1;fixedSize=1;" vertex="1" parent="1">
          <mxGeometry x="1241" y="240" width="120" height="40" as="geometry" />
        </mxCell>
        <mxCell id="4brsFd7E5QtioXpiDDoT-37" style="edgeStyle=orthogonalEdgeStyle;rounded=0;orthogonalLoop=1;jettySize=auto;html=1;exitX=0.5;exitY=1;exitDx=0;exitDy=0;" edge="1" parent="1" source="4brsFd7E5QtioXpiDDoT-36" target="4brsFd7E5QtioXpiDDoT-36">
          <mxGeometry relative="1" as="geometry" />
        </mxCell>
        <mxCell id="4brsFd7E5QtioXpiDDoT-49" style="edgeStyle=orthogonalEdgeStyle;rounded=0;orthogonalLoop=1;jettySize=auto;html=1;exitX=1;exitY=0.5;exitDx=0;exitDy=0;entryX=1;entryY=0.5;entryDx=0;entryDy=0;" edge="1" parent="1" source="4brsFd7E5QtioXpiDDoT-40" target="4brsFd7E5QtioXpiDDoT-1">
          <mxGeometry relative="1" as="geometry">
            <mxPoint x="500" y="70" as="targetPoint" />
          </mxGeometry>
        </mxCell>
        <mxCell id="4brsFd7E5QtioXpiDDoT-40" value="Fruit" style="rhombus;whiteSpace=wrap;html=1;" vertex="1" parent="1">
          <mxGeometry x="1400" y="480" width="200" height="80" as="geometry" />
        </mxCell>
        <mxCell id="4brsFd7E5QtioXpiDDoT-48" style="edgeStyle=orthogonalEdgeStyle;rounded=0;orthogonalLoop=1;jettySize=auto;html=1;exitX=1;exitY=0.5;exitDx=0;exitDy=0;entryX=1;entryY=0.5;entryDx=0;entryDy=0;" edge="1" parent="1" source="4brsFd7E5QtioXpiDDoT-41" target="4brsFd7E5QtioXpiDDoT-1">
          <mxGeometry relative="1" as="geometry" />
        </mxCell>
        <mxCell id="4brsFd7E5QtioXpiDDoT-41" value="Winter" style="rhombus;whiteSpace=wrap;html=1;" vertex="1" parent="1">
          <mxGeometry x="1400" y="380" width="200" height="80" as="geometry" />
        </mxCell>
        <mxCell id="4brsFd7E5QtioXpiDDoT-47" style="edgeStyle=orthogonalEdgeStyle;rounded=0;orthogonalLoop=1;jettySize=auto;html=1;exitX=1;exitY=0.5;exitDx=0;exitDy=0;entryX=1;entryY=0.5;entryDx=0;entryDy=0;" edge="1" parent="1" source="4brsFd7E5QtioXpiDDoT-42" target="4brsFd7E5QtioXpiDDoT-1">
          <mxGeometry relative="1" as="geometry" />
        </mxCell>
        <mxCell id="4brsFd7E5QtioXpiDDoT-42" value="Default" style="rhombus;whiteSpace=wrap;html=1;" vertex="1" parent="1">
          <mxGeometry x="1399" y="280" width="201" height="80" as="geometry" />
        </mxCell>
        <mxCell id="4brsFd7E5QtioXpiDDoT-46" value="选择主题" style="text;html=1;align=center;verticalAlign=middle;whiteSpace=wrap;rounded=0;" vertex="1" parent="1">
          <mxGeometry x="1320" y="350" width="60" height="30" as="geometry" />
        </mxCell>
        <mxCell id="4brsFd7E5QtioXpiDDoT-50" value="&lt;font style=&quot;font-size: 19px;&quot;&gt;改变主题&lt;/font&gt;" style="text;html=1;align=center;verticalAlign=middle;whiteSpace=wrap;rounded=0;" vertex="1" parent="1">
          <mxGeometry x="1261" y="10" width="80" height="30" as="geometry" />
        </mxCell>
        <mxCell id="4brsFd7E5QtioXpiDDoT-52" value="介绍该游戏" style="ellipse;whiteSpace=wrap;html=1;" vertex="1" parent="1">
          <mxGeometry x="525" y="320" width="120" height="80" as="geometry" />
        </mxCell>
        <mxCell id="4brsFd7E5QtioXpiDDoT-57" value="" style="edgeStyle=orthogonalEdgeStyle;rounded=0;orthogonalLoop=1;jettySize=auto;html=1;exitX=0;exitY=0.5;exitDx=0;exitDy=0;entryX=1;entryY=0.5;entryDx=0;entryDy=0;" edge="1" parent="1" source="4brsFd7E5QtioXpiDDoT-52" target="4brsFd7E5QtioXpiDDoT-1">
          <mxGeometry relative="1" as="geometry">
            <mxPoint x="525" y="360" as="sourcePoint" />
            <mxPoint x="474" y="40" as="targetPoint" />
          </mxGeometry>
        </mxCell>
        <mxCell id="4brsFd7E5QtioXpiDDoT-56" value="返回" style="text;html=1;align=center;verticalAlign=middle;whiteSpace=wrap;rounded=0;" vertex="1" parent="1">
          <mxGeometry x="450" y="70" width="60" height="30" as="geometry" />
        </mxCell>
      </root>
    </mxGraphModel>
  </diagram>
</mxfile>
